<!DOCTYPE svg PUBLIC "-//W3C//DTD SVG 1.1//EN" "http://www.w3.org/Graphics/SVG/1.1/DTD/svg11.dtd">
<!-- Uploaded to: SVG Repo, www.svgrepo.com, Transformed by: SVG Repo Mixer Tools -->
<svg width="800px" height="800px" viewBox="0 0 48 48" version="1" xmlns="http://www.w3.org/2000/svg" enable-background="new 0 0 48 48" fill="#000000" transform="matrix(1, 0, 0, 1, 0, 0)">
<g id="SVGRepo_bgCarrier" stroke-width="0"/>
<g id="SVGRepo_tracerCarrier" stroke-linecap="round" stroke-linejoin="round"/>
<g id="SVGRepo_iconCarrier"> <path fill="#bc7d10" d="M40,41H8c-2.2,0-4-1.8-4-4V11c0-2.2,1.8-4,4-4h32c2.2,0,4,1.8,4,4v26C44,39.2,42.2,41,40,41z"/> <circle fill="#c2e9ff" cx="35" cy="16" r="3"/> <polygon fill="#9AC9E3" points="20,16 9,32 31,32"/> <polygon fill="#c2e9ff" points="31,22 23,32 39,32"/> <circle fill="#43A047" cx="38" cy="38" r="10"/> <g fill="#c2e9ff"> <rect x="36" y="32" width="4" height="12"/> <rect x="32" y="36" width="12" height="4"/> </g> </g>
</svg>